<svg >
        <symbol id="features99"  width="32" height="32" viewBox="0 0 32 32" fill="none" xmlns="http://www.w3.org/2000/svg">
                <path d="M18 2h-3a5 5 0 0 0-5 5v3H7v4h3v8h4v-8h3l1-4h-4V7a1 1 0 0 1 1-1h3z"></path>
        </symbol>
        <symbol id="features1"  viewBox="0 0 36 36"  xmlns="http://www.w3.org/2000/svg">
               <path d="M18 0C8.05191 0 0 8.05057 0 18C0 27.9481 8.05057 36 18 36C27.9481 36 36 27.9494 36 18C36 8.05191 27.9494 0 18 0ZM31.5178 11.0625H29.0981C28.5725 9.58036 27.2409 8.47744 25.6327 8.28211C25.109 6.59229 24.4595 5.12775 23.7114 3.9195C27.1667 5.32062 29.9102 7.93863 31.5178 11.0625ZM11.8422 19.4248C11.8228 18.9502 11.8125 18.474 11.8125 18C11.8125 16.585 11.896 15.2012 12.0572 13.875H21.1444C21.62 15.2157 22.755 16.2461 24.1578 16.5751C24.1772 17.0498 24.1875 17.526 24.1875 18C24.1875 19.415 24.104 20.7988 23.9428 22.125H14.8556C14.38 20.7842 13.245 19.7539 11.8422 19.4248ZM12.2849 23.5313C12.2849 24.3067 11.6541 24.9375 10.8787 24.9375C10.1033 24.9375 9.47243 24.3067 9.47243 23.5313C9.47243 22.7538 10.1076 22.125 10.8786 22.125C11.654 22.125 12.2849 22.7559 12.2849 23.5313ZM23.7151 12.4687C23.7151 11.6933 24.3459 11.0625 25.1213 11.0625C25.8967 11.0625 26.5276 11.6933 26.5276 12.4687C26.5276 13.2543 25.8848 13.8735 25.1236 13.8748C25.1229 13.8748 25.122 13.8749 25.1213 13.8749C25.1211 13.8749 25.121 13.8749 25.1209 13.8749C24.3457 13.8748 23.7151 13.2441 23.7151 12.4687ZM18 2.8125C20.3835 2.8125 22.1478 6.62899 22.8774 8.89889C22.0811 9.4012 21.4639 10.1617 21.1444 11.0625H12.5354C13.1944 8.09902 15.0996 2.8125 18 2.8125ZM12.2884 3.9195C10.9867 6.02691 10.154 8.61701 9.6634 11.0625H4.48221C6.08927 7.93962 8.8323 5.32104 12.2884 3.9195ZM2.8125 18C2.8125 16.5855 3.00516 15.2006 3.37697 13.875H9.22725C9.07748 15.2115 9 16.5938 9 18C9 18.5771 9.01505 19.1569 9.04156 19.7341C8.04945 20.2161 7.2739 21.0758 6.9018 22.125H3.37697C3.00516 20.7994 2.8125 19.4145 2.8125 18ZM4.48221 24.9375H6.90188C7.42753 26.4196 8.75911 27.5226 10.3673 27.7179C10.891 29.4077 11.5405 30.8723 12.2886 32.0805C8.83329 30.6794 6.08977 28.0614 4.48221 24.9375ZM18 33.1875C15.6165 33.1875 13.8522 29.3709 13.1226 27.1011C13.9189 26.5988 14.5361 25.8383 14.8556 24.9375H23.4646C22.8056 27.901 20.9004 33.1875 18 33.1875ZM23.7116 32.0805C25.0133 29.9731 25.8459 27.383 26.3366 24.9375H31.5177C29.9107 28.0604 27.1677 30.679 23.7116 32.0805ZM26.7728 22.125C26.9225 20.7885 27 19.4062 27 18C27 17.4229 26.985 16.8431 26.9584 16.2659C27.9506 15.7839 28.7261 14.9242 29.0982 13.875H32.6231C32.9948 15.2007 33.1875 16.5855 33.1875 18C33.1875 19.4145 32.9948 20.7994 32.623 22.125H26.7728Z" fill="currentColor"/>
        </symbol>

        <symbol id="features2"   viewBox="0 0 36 36"  xmlns="http://www.w3.org/2000/svg">
               <path d="M34.5918 11.1456C34.5915 11.1456 34.5913 11.1456 34.591 11.1456H29.2481C28.4701 11.1456 27.8391 11.7751 27.8391 12.5519C27.8391 13.3283 28.4701 13.9581 29.2481 13.9581H31.1808L24.1182 20.9814V18.8728C24.1182 15.9321 22.5608 13.3481 20.2263 11.8979C21.7022 10.6608 22.642 8.80691 22.642 6.73736C22.642 3.02234 19.6138 0 15.8915 0C12.1692 0 9.14093 3.02234 9.14093 6.73736C9.14093 8.80691 10.0807 10.6608 11.5566 11.8979C9.22238 13.3481 7.66505 15.9324 7.66505 18.8728V26.3872L0.414481 33.5975C-0.136735 34.1457 -0.138387 35.0362 0.410903 35.5863C0.961294 36.1376 1.85348 36.137 2.40359 35.5899C3.25367 34.7445 11.0764 26.9651 12.4262 25.6228L16.9402 30.1118C17.4901 30.6584 18.3795 30.6587 18.9294 30.1118L33.182 15.9381V17.883C33.182 18.6597 33.8127 19.2892 34.591 19.2892C35.3693 19.2892 36 18.6597 36 17.883V12.5519C36 11.7812 35.3731 11.1462 34.5918 11.1456ZM15.8915 2.8125C18.06 2.8125 19.824 4.57305 19.824 6.73736C19.824 8.90166 18.06 10.6622 15.8915 10.6622C13.7229 10.6622 11.9589 8.90166 11.9589 6.73736C11.9589 4.57305 13.7232 2.8125 15.8915 2.8125ZM21.3002 23.784L17.9348 27.1304L13.4208 22.6414C12.8709 22.0946 11.9818 22.0946 11.4317 22.6414L10.4831 23.5852V18.8728C10.4831 15.8967 12.9092 13.475 15.8915 13.475C18.8738 13.475 21.3002 15.8967 21.3002 18.8728V23.784Z" fill="currentColor"/>
        </symbol>

        <symbol id="features3"  viewBox="0 0 36 36"  xmlns="http://www.w3.org/2000/svg">
                <path d="M9.56245 11.25H10.9687V11.7449C10.9687 12.5216 11.5983 13.1512 12.3749 13.1512C13.1516 13.1512 13.7812 12.5216 13.7812 11.7449V9.84376C13.7812 9.24076 13.4016 8.72636 12.8684 8.52653L17.9999 3.39498L23.1315 8.52653C22.5982 8.72643 22.2187 9.24076 22.2187 9.84376V17.3699C22.2187 18.1466 22.8483 18.7762 23.6249 18.7762C24.4016 18.7762 25.0312 18.1466 25.0312 17.3699V11.25H26.4374C27.0062 11.25 27.519 10.9074 27.7367 10.3819C27.9544 9.85642 27.8341 9.25159 27.4319 8.8494L18.9944 0.411908C18.4452 -0.137303 17.5548 -0.137303 17.0057 0.411908L8.56816 8.8494C8.16597 9.25159 8.04567 9.85642 8.26336 10.3819C8.4809 10.9074 8.99369 11.25 9.56245 11.25Z" fill="currentColor"/>
                <path d="M35.674 28.631L28.6428 20.1935C28.3756 19.8729 27.9798 19.6876 27.5625 19.6876C27.1452 19.6876 26.7494 19.8729 26.4822 20.1935L19.451 28.631C19.1016 29.0502 19.0263 29.6336 19.2577 30.1278C19.4892 30.6219 19.9856 30.9375 20.5312 30.9375H21.9375V33.1875H14.0625V25.3125H15.4687C16.0144 25.3125 16.5108 24.9969 16.7422 24.5027C16.9737 24.0085 16.8984 23.4252 16.549 23.006L9.51778 14.5685C9.25059 14.2478 8.8548 14.0625 8.4375 14.0625C8.02019 14.0625 7.6244 14.2478 7.35721 14.5685L0.325966 23.006C-0.0233459 23.4252 -0.0986506 24.0085 0.132748 24.5027C0.364216 24.9969 0.860623 25.3125 1.40625 25.3125H2.8125V34.5937C2.8125 35.3704 3.44208 36 4.21875 36H31.7812C32.5579 36 33.1875 35.3704 33.1875 34.5937V30.9375H34.5937C35.1394 30.9375 35.6358 30.6219 35.8672 30.1277C36.0987 29.6336 36.0234 29.0502 35.674 28.631ZM4.3991 22.5115L8.4375 17.6654L12.4759 22.5115C11.7844 22.6 11.25 23.1907 11.25 23.9062V33.1875H5.625V23.9062C5.625 23.1907 5.09062 22.6 4.3991 22.5115ZM30.375 29.5312V33.1875H24.75V29.5312C24.75 28.8157 24.2155 28.225 23.5241 28.1365L27.5625 23.2904L31.6009 28.1365C30.9094 28.225 30.375 28.8157 30.375 29.5312Z" fill="currentColor"/>
        </symbol>

         <symbol id="star"  viewBox="0 0 16 16"  xmlns="http://www.w3.org/2000/svg">
               <path d="M10.1607 5.83927L8 0L5.83927 5.83927L0 8L5.83927 10.1607L8 16L10.1607 10.1607L16 8L10.1607 5.83927Z" fill="currentColor"/>
        </symbol>

         <symbol id="grid-column1" viewBox="0 0 20 20" xmlns="http://www.w3.org/2000/svg">
                <path d="M20 18.8281H18.8281V7.03125H15.2734V18.8281H14.1016V11.7188H10.5859V18.8281H9.41406V9.375H5.89844V18.8281H4.72656V12.8906H1.17188V18.8281H0V20H20V18.8281Z" fill="currentColor"/>
                <path d="M20 4.6875V0H15.2734V1.17188H17.9996L12.3438 6.78863L7.65626 2.10113L0.171692 9.54668L1.00021 10.3752L7.65626 3.75824L12.3438 8.44574L18.8281 2.00043V4.6875H20Z" fill="currentColor"/>
        </symbol>

         <symbol id="grid-column2"  viewBox="0 0 24 23"  xmlns="http://www.w3.org/2000/svg">
                <path d="M4.84873 17.6953C4.43816 17.8769 3.98469 17.9785 3.50764 17.9785C3.03083 17.9785 2.57745 17.8769 2.16702 17.6955C0.900641 18.2227 0.0078125 19.4728 0.0078125 20.9279V22.1518H5.89058V21.9159C5.89058 20.933 6.1243 20.0037 6.53858 19.1803C6.15528 18.5179 5.56123 17.9921 4.84873 17.6953Z" fill="currentColor"/>
                <path d="M21.8165 17.703C21.4102 17.8801 20.9623 17.9789 20.4916 17.9789C20.0084 17.9789 19.5493 17.8745 19.1346 17.6885C18.425 17.9795 17.8322 18.4975 17.4453 19.1513C17.8689 19.9821 18.1086 20.9216 18.1086 21.9164V22.1522H23.9576V20.9283C23.9576 19.48 23.0734 18.2345 21.8165 17.703Z" fill="currentColor"/>
                <path d="M5.28533 15.3917C5.69182 14.411 5.22636 13.2865 4.2457 12.88C3.26504 12.4736 2.14054 12.939 1.73405 13.9197C1.32757 14.9003 1.79303 16.0248 2.77369 16.4313C3.75434 16.8378 4.87885 16.3723 5.28533 15.3917Z" fill="currentColor"/>
                <path d="M20.492 16.5729C21.5533 16.5729 22.4137 15.7125 22.4137 14.6512C22.4137 13.5899 21.5533 12.7295 20.492 12.7295C19.4307 12.7295 18.5703 13.5899 18.5703 14.6512C18.5703 15.7125 19.4307 16.5729 20.492 16.5729Z" fill="currentColor"/>
                <path d="M12.0009 16.573C13.4856 16.573 14.6892 15.3694 14.6892 13.8847C14.6892 12.3999 13.4856 11.1963 12.0009 11.1963C10.5161 11.1963 9.3125 12.3999 9.3125 13.8847C9.3125 15.3694 10.5161 16.573 12.0009 16.573Z" fill="currentColor"/>
                <path d="M13.7888 17.5664C13.248 17.8301 12.641 17.9783 12 17.9783C11.359 17.9783 10.752 17.8301 10.2113 17.5664C8.50259 18.2717 7.29688 19.9555 7.29688 21.9158V22.1516H16.7032V21.9158C16.7032 19.9555 15.4975 18.2717 13.7888 17.5664Z" fill="currentColor"/>
                <path d="M13.4879 3.0045L12.005 0H11.9956L10.5127 3.0045L7.19719 3.48623L7.19531 3.49636L9.59344 5.83397L9.02728 9.13477L9.03694 9.14062L12.0003 7.58269L14.9637 9.14062L14.9733 9.13477L14.4072 5.83397L16.8053 3.49636L16.8035 3.48623L13.4879 3.0045Z" fill="currentColor"/>
                <path d="M1.79836 11.4421L1.8052 11.4448L3.53119 10.1183L5.60231 10.7881L5.60789 10.7833L4.87945 8.73123L6.15684 6.96794L6.15455 6.9617L3.97697 7.02039L2.69405 5.25977L2.68805 5.26084L2.07089 7.35002L9.375e-05 8.026L0 8.03266L1.79541 9.26462L1.79836 11.4421Z" fill="currentColor"/>
                <path d="M18.3927 10.7833L18.3983 10.7881L20.4694 10.1183L22.1954 11.4448L22.2022 11.4421L22.2052 9.26462L24.0006 8.03266L24.0005 8.026L21.9297 7.35002L21.3125 5.26084L21.3065 5.25977L20.0236 7.02039L17.846 6.9617L17.8438 6.96794L19.1211 8.73123L18.3927 10.7833Z" fill="currentColor"/>
        </symbol>

         <symbol id="grid-column3"  viewBox="0 0 24 24"  xmlns="http://www.w3.org/2000/svg">
                <path d="M3.82227 20.692C5.22634 21.9978 6.89054 22.9322 8.69503 23.4452C7.58593 22.0528 6.85928 20.1494 6.41549 18.4258C5.43287 19.0369 4.55655 19.8036 3.82227 20.692Z" fill="currentColor"/>
                <path d="M6.41377 5.34615C6.85515 3.62957 7.58109 1.71877 8.69501 0.320312C6.88547 0.834677 5.21712 1.77285 3.81055 3.08433C4.53766 3.96277 5.4129 4.72859 6.41377 5.34615Z" fill="currentColor"/>
                <path d="M11.2927 23.7652V16.8564C10.0219 16.9405 8.8116 17.2491 7.70117 17.7434C7.94975 18.7809 8.26621 19.7413 8.64585 20.5955C9.39644 22.2842 10.3328 23.3937 11.2927 23.7652Z" fill="currentColor"/>
                <path d="M7.05148 11.6836C7.04083 13.2223 7.15166 14.7926 7.41174 16.3215C8.39281 15.9167 9.42814 15.6435 10.4961 15.511L7.05148 11.6836Z" fill="currentColor"/>
                <path d="M12.7072 0V6.00431C13.8088 5.35871 15.1902 5.35739 16.2941 6.00295C16.0462 4.97271 15.7313 4.0187 15.354 3.16972C14.6034 1.48101 13.667 0.371525 12.7072 0Z" fill="currentColor"/>
                <path d="M16.6482 9.08081C16.6482 7.89524 15.6884 6.93407 14.502 6.93407C13.929 6.93407 13.3901 7.15738 12.9848 7.56289L12 8.54768L11.0153 7.56298C10.1767 6.7241 8.81964 6.72353 7.98066 7.56289C7.16223 8.38137 7.1488 9.67838 7.90274 10.516L12 15.0686L16.0972 10.516C16.4525 10.1213 16.6482 9.61158 16.6482 9.08081Z" fill="currentColor"/>
                <path d="M7.70508 6.00295C8.80721 5.35842 10.1887 5.35772 11.292 6.00431V0C10.3322 0.371525 9.39573 1.48101 8.64518 3.16972C8.26781 4.0187 7.95295 4.97276 7.70508 6.00295Z" fill="currentColor"/>
                <path d="M6.09115 16.9648C5.83258 15.5867 5.6805 14.1115 5.64439 12.5898H0C0.150901 15.2089 1.13848 17.6694 2.8344 19.6611C3.77974 18.5508 4.88611 17.647 6.09115 16.9648Z" fill="currentColor"/>
                <path d="M18.3549 12.5898C18.3189 14.1114 18.1668 15.5867 17.9082 16.9648C19.113 17.6469 20.2194 18.5506 21.1649 19.6611C22.8609 17.6694 23.8485 15.2089 23.9994 12.5898H18.3549Z" fill="currentColor"/>
                <path d="M5.64439 11.1752C5.6805 9.65233 5.83281 8.1758 6.09181 6.79686C4.85401 6.09741 3.75169 5.18569 2.83393 4.10449C1.13829 6.09614 0.150901 8.55642 0 11.1752H5.64439Z" fill="currentColor"/>
                <path d="M17.9082 6.79686C18.1672 8.1758 18.3196 9.65233 18.3556 11.1752H24C23.8491 8.55642 22.8617 6.09614 21.1661 4.10449C20.2483 5.18569 19.146 6.09741 17.9082 6.79686Z" fill="currentColor"/>
                <path d="M16.9485 11.6836L13.5039 15.5109C14.5719 15.6435 15.6073 15.9167 16.5883 16.3215C16.8483 14.7925 16.9592 13.2222 16.9485 11.6836Z" fill="currentColor"/>
                <path d="M12.707 23.7652C13.6668 23.3937 14.6033 22.2842 15.3539 20.5955C15.7335 19.7413 16.05 18.7809 16.2985 17.7434C15.1881 17.2491 13.9778 16.9405 12.707 16.8564V23.7652Z" fill="currentColor"/>
                <path d="M20.1891 3.08433C18.7826 1.77285 17.1141 0.834677 15.3047 0.320312C16.4185 1.71868 17.1444 3.62939 17.5859 5.34615C18.5868 4.72864 19.462 3.96282 20.1891 3.08433Z" fill="currentColor"/>
                <path d="M20.1775 20.692C19.4432 19.8035 18.5669 19.0369 17.5842 18.4258C17.1404 20.1495 16.4138 22.0528 15.3047 23.4452C17.1092 22.9321 18.7734 21.9978 20.1775 20.692Z" fill="currentColor"/>

        </symbol>

          <symbol id="grid-column4" viewBox="0 0 24 24" xmlns="http://www.w3.org/2000/svg">
                <path d="M10.285 22.635C10.285 23.3878 10.8972 24 11.65 24C12.4028 24 13.015 23.3878 13.015 22.635V22.0781H10.285V22.635Z" fill="currentColor"/>
                <path d="M9.06836 18.5059H14.2321V20.6715H9.06836V18.5059Z" fill="currentColor"/>
                <path d="M11.6495 5.20312C8.21359 5.20312 5.41797 7.99875 5.41797 11.4347C5.41797 13.7306 6.67469 15.8339 8.69828 16.9242L9.02406 17.1H14.275L14.6008 16.9242C16.6239 15.8339 17.8811 13.7306 17.8811 11.4347C17.8811 7.99875 15.0855 5.20312 11.6495 5.20312ZM10.6905 13.8891L8.57641 11.7745L9.57062 10.7803L10.6905 11.9002L13.7284 8.86219L14.7227 9.85687L10.6905 13.8891Z" fill="currentColor"/>
                <path d="M10.9473 0H12.3535V3.04688H10.9473V0Z" fill="currentColor"/>
                <path d="M17.2344 5.07129L19.3885 2.91715L20.3827 3.91137L18.2286 6.06551L17.2344 5.07129Z" fill="currentColor"/>
                <path d="M20.2539 10.9473H23.3008V12.3535H20.2539V10.9473Z" fill="currentColor"/>
                <path d="M17.2324 18.2305L18.2266 17.2362L20.3808 19.3904L19.3866 20.3846L17.2324 18.2305Z" fill="currentColor"/>
                <path d="M2.91211 19.3896L5.06625 17.2355L6.06047 18.2297L3.90633 20.3839L2.91211 19.3896Z" fill="currentColor"/>
                <path d="M0 10.9473H3.04688V12.3535H0V10.9473Z" fill="currentColor"/>
                <path d="M2.91406 3.90918L3.90828 2.91496L6.06242 5.0691L5.0682 6.06332L2.91406 3.90918Z" fill="currentColor"/>
        </symbol>

         <symbol id="5stars"   viewBox="0 0 24 23"  xmlns="http://www.w3.org/2000/svg">
              <path d="M23.4794 10.4203C23.9518 9.95995 24.1186 9.28426 23.9148 8.65615C23.7106 8.02803 23.1786 7.57965 22.525 7.4845L16.7139 6.64013C16.4664 6.60408 16.2525 6.44886 16.142 6.22443L13.544 0.959231C13.2523 0.367641 12.6602 0 12.0004 0C11.341 0 10.749 0.367641 10.4572 0.959231L7.85877 6.22491C7.74824 6.44934 7.5339 6.60456 7.2864 6.64061L1.47527 7.48498C0.822167 7.57965 0.289688 8.02851 0.0854429 8.65662C-0.118322 9.28474 0.0484385 9.96043 0.520845 10.4208L4.72541 14.5192C4.90467 14.6941 4.98684 14.9459 4.94455 15.192L3.95264 20.9791C3.8647 21.4885 3.9983 21.984 4.32797 22.3747C4.84027 22.9836 5.73462 23.1691 6.44972 22.7933L11.6467 20.0607C11.8639 19.9468 12.1373 19.9478 12.3541 20.0607L17.5515 22.7933C17.8043 22.9264 18.0739 22.9937 18.3522 22.9937C18.8601 22.9937 19.3417 22.7678 19.6728 22.3747C20.0029 21.984 20.1361 21.4875 20.0481 20.9791L19.0557 15.192C19.0134 14.9455 19.0956 14.6941 19.2749 14.5192L23.4794 10.4203Z" fill="currentColor"/>
        </symbol>
</svg>





